<svg width="512" height="512" viewBox="0 0 512 512" xmlns="http://www.w3.org/2000/svg">
  <defs>
    <linearGradient id="bg" x1="0%" y1="0%" x2="100%" y2="100%">
      <stop offset="0%" stop-color="#ffe1b0" />
      <stop offset="100%" stop-color="#ffc46d" />
    </linearGradient>
    <linearGradient id="shirt" x1="0%" y1="0%" x2="100%" y2="0%">
      <stop offset="0%" stop-color="#9dc5f8" />
      <stop offset="100%" stop-color="#6a9ae3" />
    </linearGradient>
  </defs>
  <rect width="512" height="512" rx="120" fill="url(#bg)" />
  <circle cx="256" cy="176" r="96" fill="#f7c89c" />
  <path d="M160 352c32-48 224-48 256 0v96H160z" fill="url(#shirt)" />
  <path d="M160 352c8-32 56-56 96-56s88 24 96 56H160z" fill="#7c8bb5" opacity="0.3" />
  <path d="M176 200s0-80 80-112c64-26 112 56 112 88s-32 64-32 64 16-80-64-80-96 40-96 40z" fill="#3d3631" />
  <rect x="188" y="228" width="28" height="16" rx="8" fill="#f7c89c" />
  <rect x="296" y="228" width="28" height="16" rx="8" fill="#f7c89c" />
  <path d="M220 276c12 20 60 20 72 0" stroke="#d88955" stroke-width="12" stroke-linecap="round" />
  <circle cx="214" cy="220" r="12" fill="#3d3631" />
  <circle cx="298" cy="220" r="12" fill="#3d3631" />
</svg>

